<?xml version="1.0" encoding="utf-8"?>
<!-- Generator: Adobe Illustrator 16.0.0, SVG Export Plug-In . SVG Version: 6.00 Build 0)  -->
<!DOCTYPE svg PUBLIC "-//W3C//DTD SVG 1.1//EN" "http://www.w3.org/Graphics/SVG/1.1/DTD/svg11.dtd">
<svg version="1.1" id="Layer_1" xmlns="http://www.w3.org/2000/svg" xmlns:xlink="http://www.w3.org/1999/xlink" x="0px" y="0px"
	 width="468px" height="560px" viewBox="0 0 468 560" enable-background="new 0 0 468 560" xml:space="preserve">
<g>
	<polygon fill="#010101" points="82.307,231.097 385.693,54.375 385.693,122.816 82.307,298.516 	"/>
	<polygon fill="#010101" points="82.307,325.84 221.23,244.121 221.23,410.512 175.262,381.016 175.262,336.057 151.77,352.399 
		151.77,394.279 221.23,438.206 341.77,371.211 341.77,434.117 220.209,505.625 82.307,423.919 	"/>
	<polygon fill="#010101" points="238.597,235.948 288.649,205.302 288.649,320.733 333.597,297.238 333.597,184.873 
		385.693,151.163 385.693,322.293 238.597,404.011 	"/>
	<polygon fill="#010101" points="356.069,364.969 385.693,346.809 385.693,412.169 356.069,428.527 	"/>
</g>
</svg>
