<?xml version="1.0" encoding="utf-8"?>
<!-- Generator: Adobe Illustrator 16.0.0, SVG Export Plug-In . SVG Version: 6.00 Build 0)  -->
<!DOCTYPE svg PUBLIC "-//W3C//DTD SVG 1.1//EN" "http://www.w3.org/Graphics/SVG/1.1/DTD/svg11.dtd">
<svg version="1.1" id="Layer_2" xmlns="http://www.w3.org/2000/svg" xmlns:xlink="http://www.w3.org/1999/xlink" x="0px" y="0px"
	 width="321px" height="181px" viewBox="0 0 321 181" enable-background="new 0 0 321 181" xml:space="preserve">
<path fill="#3670A1" d="M80.046,156.347"/>
<g>
	<circle fill="#3670A1" cx="161.75" cy="97.806" r="57.851"/>
	<g>
		<circle fill="#3670A1" cx="113.218" cy="46.077" r="30.866"/>
		<path fill="#363D3D" d="M113.218,69.178c-12.738,0-23.102-10.363-23.102-23.102c0-12.738,10.363-23.101,23.102-23.101
			s23.102,10.363,23.102,23.101C136.319,58.815,125.956,69.178,113.218,69.178z"/>
	</g>
	<g>
		<circle fill="#3670A1" cx="210.282" cy="47.63" r="30.867"/>
		<path fill="#363D3D" d="M210.282,70.731c-12.738,0-23.102-10.363-23.102-23.102s10.363-23.102,23.102-23.102
			s23.102,10.363,23.102,23.102S223.021,70.731,210.282,70.731z"/>
	</g>
	<path fill="none" d="M161.75,81.063c0,0,7.34,12.635,0,27.807"/>
	<g>
		<path fill="#F4F4F4" d="M191.376,94.586c-1.218-12.7-9.56-22.291-18.632-21.42c-4.552,0.437-8.422,3.425-10.995,7.897
			c-2.573-4.473-6.443-7.46-10.995-7.897c-9.072-0.87-17.414,8.72-18.632,21.42s5.149,23.701,14.22,24.571
			c6.125,0.588,11.916-3.598,15.407-10.287c3.491,6.688,9.281,10.875,15.407,10.287C186.228,118.288,192.595,107.287,191.376,94.586
			z"/>
		<g>
			<circle fill="#020303" cx="150.842" cy="91.825" r="6.952"/>
			<circle fill="#FFFFFF" cx="153.144" cy="89.531" r="1.488"/>
		</g>
		<g>
			<circle fill="#020303" cx="174.137" cy="93.377" r="6.952"/>
			<circle fill="#FFFFFF" cx="171.78" cy="90.308" r="1.488"/>
		</g>
		<circle cx="161.944" cy="117.452" r="12.813"/>
	</g>
</g>
<rect x="9" y="132" fill="#2C2C54" width="304" height="35"/>
<path fill="#3670A1" d="M237.62,156.347"/>
<path fill="#3670A1" d="M253.153,130.521c-1.787-6.324-6.24-10.602-9.947-9.554c-1.161,0.328-2.111,1.139-2.813,2.292
	c-1.864-1.913-4.015-2.843-5.962-2.292c-1.088,0.307-1.985,1.047-2.672,2.088c-1.818-1.778-3.888-2.619-5.767-2.088
	c-3.707,1.047-5.264,7.022-3.478,13.346s6.24,10.601,9.947,9.554c1.088-0.308,1.985-1.048,2.672-2.088
	c1.818,1.777,3.888,2.619,5.767,2.088c1.161-0.328,2.111-1.14,2.813-2.293c1.864,1.914,4.015,2.844,5.962,2.293
	C253.382,142.82,254.939,136.845,253.153,130.521z"/>
<path fill="#3670A1" d="M72.512,130.521c1.787-6.324,6.24-10.602,9.947-9.554c1.161,0.328,2.111,1.139,2.813,2.292
	c1.864-1.913,4.015-2.843,5.962-2.292c1.088,0.307,1.985,1.047,2.672,2.088c1.818-1.778,3.888-2.619,5.767-2.088
	c3.707,1.047,5.264,7.022,3.478,13.346s-6.24,10.601-9.947,9.554c-1.088-0.308-1.985-1.048-2.672-2.088
	c-1.818,1.777-3.888,2.619-5.767,2.088c-1.161-0.328-2.111-1.14-2.813-2.293c-1.864,1.914-4.015,2.844-5.962,2.293
	C72.283,142.82,70.726,136.845,72.512,130.521z"/>
</svg>
